<svg xmlns="http://www.w3.org/2000/svg" viewBox="0 0 244.62 206.68"><defs><style>.cls-1{fill:#3d3d3d;}.cls-2{fill:#e64663;}</style></defs><title>Learnings-analytics_1</title><g id="Calque_2" data-name="Calque 2"><g id="Calque_1-2" data-name="Calque 1"><path class="cls-1" d="M238.63,194.7H12V6A6,6,0,0,0,0,6v194.7a6,6,0,0,0,6,6H238.63a6,6,0,0,0,0-12Z"/><path class="cls-2" d="M207.41,8.2a18.92,18.92,0,0,0-16.35,28.47l-29.68,50.9a18.54,18.54,0,0,0-4.3-.52,18.89,18.89,0,0,0-15.31,7.84L98,87.76A18.93,18.93,0,1,0,63.4,102.92a7.93,7.93,0,0,0-1.89,1.9L26.94,154.94a8.08,8.08,0,0,0,13.3,9.18L74.82,114a8.93,8.93,0,0,0,.66-1.21,18.72,18.72,0,0,0,4.88.66,18.92,18.92,0,0,0,16.4-9.52l42,6.85a18.92,18.92,0,1,0,35.35-13l30.31-52a19.42,19.42,0,0,0,3,.26,18.95,18.95,0,1,0,0-37.89Zm0,29.81a10.87,10.87,0,1,1,10.87-10.86A10.88,10.88,0,0,1,207.41,38Zm-127,67.36A10.87,10.87,0,1,1,91.22,94.5a10.89,10.89,0,0,1-10.86,10.87Zm76.72,11.49A10.86,10.86,0,1,1,167.93,106a10.87,10.87,0,0,1-10.85,10.86Z"/></g></g></svg>