<svg xmlns="http://www.w3.org/2000/svg" viewBox="0 0 235.13 285.95"><defs><style>.cls-1{fill:#fff;}.cls-2{fill:#393e46;}.cls-3{fill:#e64663;}</style></defs><title>Qualitative-assessment</title><g id="Calque_2" data-name="Calque 2"><g id="Calque_1-2" data-name="Calque 1"><path class="cls-1" d="M198.62,258.07c0,11.25-9.91,20.38-22.13,20.38H29.64c-12.23,0-22.14-9.13-22.14-20.38V49.83c0-11.26,9.91-20.38,22.14-20.38H176.49c12.22,0,22.13,9.12,22.13,20.38Z"/><rect class="cls-2" x="33.17" y="108.35" width="139.37" height="8.16" rx="1.2" ry="1.2"/><rect class="cls-2" x="33.17" y="149.17" width="139.37" height="8.16" rx="1.2" ry="1.2"/><rect class="cls-2" x="33.17" y="189.99" width="139.37" height="8.16" rx="1.2" ry="1.2"/><rect class="cls-2" x="33.17" y="230.81" width="139.37" height="8.16" rx="1.2" ry="1.2"/><path class="cls-3" d="M183.83.47l15.43,31.27a.85.85,0,0,0,.64.46l34.51,5a.84.84,0,0,1,.46,1.44L209.9,63a.82.82,0,0,0-.24.74l5.89,34.37a.84.84,0,0,1-1.21.89L183.47,82.76a.83.83,0,0,0-.78,0L151.82,99a.84.84,0,0,1-1.22-.89l5.9-34.37a.87.87,0,0,0-.24-.74l-25-24.34a.85.85,0,0,1,.47-1.44l34.51-5a.83.83,0,0,0,.63-.46L182.33.47A.83.83,0,0,1,183.83.47Z"/><path class="cls-2" d="M191.12,258.07c0,7.1-6.56,12.88-14.63,12.88H29.64C21.57,271,15,265.17,15,258.07V49.83C15,42.73,21.57,37,29.64,37h92.74l-1.87-1.83a.81.81,0,0,1,.45-1.39l42.42-6.16L166.15,22H29.64C13.29,22,0,34.46,0,49.83V258.07C0,273.44,13.29,286,29.64,286H176.49c16.34,0,29.63-12.51,29.63-27.88V100.32l-15-7.89Z"/><path class="cls-2" d="M34.37,67.53a1.2,1.2,0,0,0-1.2,1.19v5.77a1.2,1.2,0,0,0,1.2,1.2h115l1.4-8.16Z"/></g></g></svg>