<svg xmlns="http://www.w3.org/2000/svg" viewBox="0 0 244.27 251.66"><defs><style>.cls-1{fill:#fff;}.cls-2{fill:#e64663;}.cls-3{fill:none;stroke:#444;stroke-miterlimit:10;stroke-width:6.19px;}.cls-4{fill:#3d3d3d;}.cls-5{fill:#e64563;}</style></defs><title>Fast-creation-process</title><g id="Calque_2" data-name="Calque 2"><g id="Calque_1-2" data-name="Calque 1"><line class="cls-1" x1="35" y1="182.18" x2="45.41" y2="192.58"/><rect class="cls-2" x="35.21" y="180.02" width="10" height="14.71" transform="translate(-120.72 83.31) rotate(-45)"/><path class="cls-3" d="M223.17,137.16A109.54,109.54,0,1,1,113.61,27.59,109.53,109.53,0,0,1,223.17,137.16Z"/><path class="cls-1" d="M224.07,137.16A109.54,109.54,0,1,1,114.51,27.59,109.53,109.53,0,0,1,224.07,137.16Z"/><path class="cls-4" d="M114.51,22.59A114.54,114.54,0,1,0,229.07,137.16,114.67,114.67,0,0,0,114.51,22.59Zm55.13,203.33-10.46-18.13a3,3,0,0,0-5.2,3l10.48,18.15a104,104,0,0,1-46.67,12.67V220.49a3,3,0,0,0-6,0v21.14A103.92,103.92,0,0,1,65,229.17L75.6,210.79a3,3,0,0,0-5.2-3L59.8,226.16a105.32,105.32,0,0,1-34.27-34.25L43.91,181.3a3,3,0,0,0-3-5.2L22.52,186.72A103.85,103.85,0,0,1,10,139.91H31.21a3,3,0,1,0,0-6H10.06a103.89,103.89,0,0,1,12.65-46.7l18.2,10.51a3,3,0,0,0,3-5.2L25.74,82A105.36,105.36,0,0,1,60,48L70.4,66a3,3,0,0,0,5.2-3L65.18,45a103.79,103.79,0,0,1,46.61-12.36v20.7a3,3,0,0,0,6,0V32.65a103.9,103.9,0,0,1,46.48,12.56L154,63a3,3,0,0,0,5.2,3l10.27-17.8a105.28,105.28,0,0,1,34,34L185.67,92.52a3,3,0,0,0,3,5.2l17.81-10.28A103.87,103.87,0,0,1,219,133.91H198.37a3,3,0,0,0,0,6H219a103.68,103.68,0,0,1-12.37,46.58l-18-10.39a3,3,0,0,0-3,5.2l18,10.39A105.4,105.4,0,0,1,169.64,225.92Z"/><path class="cls-5" d="M173.1,77.68a6.19,6.19,0,0,0-8.76,0l-50.7,50.71L84.88,99.63a6.19,6.19,0,1,0-8.75,8.76l28.75,28.75L98.07,144a6.19,6.19,0,0,0,8.76,8.76l6.81-6.81,6.67,6.67a6.19,6.19,0,0,0,8.75-8.76l-6.66-6.67,50.7-50.7A6.19,6.19,0,0,0,173.1,77.68Z"/><circle class="cls-1" cx="206.25" cy="38.02" r="33.02"/><path class="cls-2" d="M206.25,76a38,38,0,1,1,38-38A38.07,38.07,0,0,1,206.25,76Zm0-66a28,28,0,1,0,28,28A28.05,28.05,0,0,0,206.25,10Z"/><polygon class="cls-4" points="220.97 34.92 209.35 34.92 209.35 23.3 203.16 23.3 203.16 34.92 191.53 34.92 191.53 41.12 203.16 41.12 203.16 52.74 209.35 52.74 209.35 41.12 220.97 41.12 220.97 34.92"/></g></g></svg>