<svg xmlns="http://www.w3.org/2000/svg" viewBox="0 0 291.26 156.99"><defs><style>.cls-1{fill:#393e46;}.cls-2{fill:none;stroke:#e64663;stroke-miterlimit:10;stroke-width:6.37px;}.cls-3{fill:#e64663;}</style></defs><title>Collaborative-tool_2</title><g id="Calque_2" data-name="Calque 2"><g id="Calque_1-2" data-name="Calque 1"><path class="cls-1" d="M288.49,130.49c-6.21-7.36-12.84-13-25-16.33-4.82-2.12-5.77-2.6-6.83-3.43l-1.28-1.28c-1.92-1.87-2.73-2.66-3.06-5V92C256,87.57,258.19,81.7,260,75.94c3.15-1.52,6-5.43,6.95-9.58,1-4.44.61-8.31-1-10.77,4.76-18.37,3.89-33.66-2.41-42a17.38,17.38,0,0,0-14-7,11.23,11.23,0,0,1-.76-1c-2.33-3.2-5-5.64-15.69-5.64H232c-12.57,0-22.13,3.82-28.42,11.36-7.91,9.48-10.23,24.46-6.89,44.51-1.46,2.43-1.82,6-1,10.22a14.5,14.5,0,0,0,6.12,9.44c2.61,7.47,5.29,12.7,8.42,16.37.19,6.37.2,12,0,13a8.76,8.76,0,0,1-2.74,4.6c-1.49,1.49-3.58,2.64-8,4.4-12.68,3.5-19.44,9.16-25.69,16.56L171,133.77l3.23,2.84c16,14.09,33.56,20.38,56.91,20.38S272,150.7,288,136.61l3.22-2.84Zm-69.68-24c.49-2.69.21-12.45.07-16.53l-.06-1.71-1.21-1.21c-2.88-2.92-5.47-8-8.14-16l-.28-3.21-3.12.13a6.89,6.89,0,0,1-1.83-3.47,12,12,0,0,1-.21-3.21l2.44-.41-.8-4.37C202.29,38,203.84,24.72,210.29,17c4.55-5.44,11.86-8.21,21.74-8.21h1c7.11,0,7.77.91,8.62,2.06a13.34,13.34,0,0,0,4.16,3.94l1.12.66,2-.07a8.66,8.66,0,0,1,7.51,3.51c4.84,6.42,4.92,20.64.22,37.11L256,60.19l2.67.85a11.57,11.57,0,0,1-.31,3.41A6.94,6.94,0,0,1,257.18,67l-3.06-2.3-1.77,6.08c-2.17,7.46-4.28,13.12-7.54,16.51l-1.23,1.27,0,16.33v.15c.73,5.87,3.36,8.43,5.68,10.68l1.45,1.42.09.07c2.34,1.92,4.18,2.76,9.65,5.14l.16,0c9.07,2.54,13.24,6.1,18,10.58-13.69,10.8-27.59,15.22-47.54,15.22s-33.86-4.43-47.56-15.22c4.69-4.37,9.17-8.14,18.6-10.75l.13,0c5.2-2.06,8.55-3.7,11.34-6.48A17.41,17.41,0,0,0,218.81,106.52Z"/><path class="cls-1" d="M117.49,130.49c-6.21-7.36-12.84-13-25-16.33-4.82-2.12-5.77-2.6-6.83-3.43l-1.28-1.28c-1.92-1.87-2.73-2.66-3.06-5V92C85,87.57,87.19,81.7,89,75.94c3.15-1.52,6-5.43,7-9.58,1-4.44.61-8.31-1-10.77,4.76-18.37,3.89-33.66-2.41-42a17.38,17.38,0,0,0-14-7,11.23,11.23,0,0,1-.76-1C75.42,2.44,72.78,0,62.06,0H61C48.41,0,38.85,3.83,32.56,11.37c-7.91,9.48-10.23,24.46-6.89,44.51-1.46,2.43-1.82,6-1,10.22a14.5,14.5,0,0,0,6.12,9.44C33.36,83,36,88.24,39.17,91.91c.19,6.37.2,12,0,13a8.76,8.76,0,0,1-2.74,4.6c-1.49,1.49-3.58,2.64-8,4.4C15.78,117.43,9,123.09,2.77,130.49L0,133.77l3.23,2.84C19.24,150.7,36.79,157,60.14,157S101,150.7,117,136.61l3.22-2.84Zm-69.68-24c.49-2.69.21-12.45.07-16.53l-.06-1.71-1.21-1.21c-2.88-2.92-5.47-8-8.14-16l-.28-3.21-3.12.13a6.89,6.89,0,0,1-1.83-3.47A12,12,0,0,1,33,61.26l2.44-.41-.8-4.37C31.29,38,32.84,24.72,39.29,17,43.84,11.54,51.15,8.77,61,8.77h1c7.11,0,7.77.91,8.62,2.06a13.34,13.34,0,0,0,4.16,3.94l1.12.66,2-.07a8.66,8.66,0,0,1,7.51,3.51c4.84,6.42,4.92,20.64.22,37.11L85,60.19l2.67.85a11.57,11.57,0,0,1-.31,3.41A6.94,6.94,0,0,1,86.18,67l-3.06-2.3L81.35,70.8c-2.17,7.46-4.28,13.12-7.54,16.51l-1.23,1.27,0,16.33v.15c.73,5.87,3.36,8.43,5.68,10.68l1.45,1.42.09.07c2.34,1.92,4.18,2.76,9.65,5.14l.16,0c9.07,2.54,13.24,6.1,18,10.58C94,143.8,80.09,148.22,60.14,148.22S26.28,143.79,12.58,133c4.69-4.37,9.17-8.14,18.6-10.75l.13,0c5.2-2.06,8.55-3.7,11.34-6.48A17.41,17.41,0,0,0,47.81,106.52Z"/><line class="cls-2" x1="110.93" y1="73.58" x2="180.33" y2="73.58"/><path class="cls-3" d="M121.35,82l-7.24-7.23a1.68,1.68,0,0,1,0-2.4l7.24-7.24a1.7,1.7,0,0,0-1.2-2.9h-4.83a1.7,1.7,0,0,0-1.2.5l-9.63,9.64a1.68,1.68,0,0,0,0,2.4l9.63,9.63a1.7,1.7,0,0,0,1.2.5h4.83A1.7,1.7,0,0,0,121.35,82Z"/><path class="cls-3" d="M169.91,82l7.24-7.23a1.7,1.7,0,0,0,0-2.4l-7.24-7.24a1.7,1.7,0,0,1,1.2-2.9h4.82a1.7,1.7,0,0,1,1.2.5l9.64,9.64a1.7,1.7,0,0,1,0,2.4l-9.64,9.63a1.7,1.7,0,0,1-1.2.5h-4.82A1.7,1.7,0,0,1,169.91,82Z"/></g></g></svg>