<svg xmlns="http://www.w3.org/2000/svg" viewBox="0 0 121.52 121.49"><defs><style>.cls-1{fill:#393e46;fill-rule:evenodd;}.cls-2{fill:none;stroke:#393e46;stroke-miterlimit:10;stroke-width:2.55px;}.cls-3{fill:#e64663;}.cls-4{fill:#fff;}</style></defs><title>Solution-modulable</title><g id="Calque_2" data-name="Calque 2"><g id="Calque_1-2" data-name="Calque 1"><g id="Settings"><path class="cls-1" d="M116.77,47.89h-9.06A48.76,48.76,0,0,0,106,42.66l-.53-1.28a48.72,48.72,0,0,0-2.37-4.74l6.4-6.39a3.46,3.46,0,0,0,0-4.93L96.2,12.06a3.58,3.58,0,0,0-4.93,0l-6.4,6.4a54.83,54.83,0,0,0-5-2.49l-1.19-.49q-2.46-1-5-1.68v-9a3.49,3.49,0,0,0-3.48-3.49H51.39A3.49,3.49,0,0,0,47.9,4.76v9a53,53,0,0,0-5,1.68l-1.47.61a50,50,0,0,0-4.75,2.37l-6.4-6.4a3.58,3.58,0,0,0-4.93,0L12.07,25.32a3.49,3.49,0,0,0,0,4.93l6.4,6.39A50.31,50.31,0,0,0,16,41.73l-.46,1.13a48.63,48.63,0,0,0-1.68,5h-9a3.5,3.5,0,0,0-3.49,3.48V70.12A3.49,3.49,0,0,0,4.76,73.6h9.05a50.23,50.23,0,0,0,1.77,5.27l.52,1.24a48.72,48.72,0,0,0,2.37,4.74l-6.4,6.4a3.48,3.48,0,0,0,0,4.92l13.25,13.26a3.57,3.57,0,0,0,4.93,0l6.4-6.4a47.21,47.21,0,0,0,4.72,2.36l1.09.46.41.16a48.63,48.63,0,0,0,5,1.68v9a3.49,3.49,0,0,0,3.49,3.48H70.14a3.49,3.49,0,0,0,3.48-3.48v-9a50.28,50.28,0,0,0,5.23-1.76l1.28-.53A48.72,48.72,0,0,0,84.87,103l6.4,6.4a3.57,3.57,0,0,0,4.93,0l13.25-13.26a3.48,3.48,0,0,0,0-4.92l-6.4-6.4a49.16,49.16,0,0,0,2.48-5l.21-.49.3-.75a47.79,47.79,0,0,0,1.67-5h9.06a3.48,3.48,0,0,0,3.48-3.48V51.37A3.49,3.49,0,0,0,116.77,47.89Zm-.61,21.63H104.51l-.37,1.57a45.89,45.89,0,0,1-2,6.22l-.2.5-.29.67a44.64,44.64,0,0,1-2.92,5.62l-.85,1.37,8.24,8.24-12.41,12.4-8.24-8.23-1.37.84a46.78,46.78,0,0,1-5.88,3l-.42.17-.67.27a45.21,45.21,0,0,1-6.05,1.91l-1.57.37v11.64H52V104.49l-1.57-.37A47,47,0,0,1,44,102.07l-.56-.24-.43-.18a44.76,44.76,0,0,1-5.62-2.93L36,97.88l-8.24,8.23L15.38,93.71l8.24-8.24-.85-1.37a45.93,45.93,0,0,1-3-5.82l-.2-.47-.28-.68a45.17,45.17,0,0,1-1.9-6L17,69.52H5.36V52H17l.37-1.57a45.27,45.27,0,0,1,2-6.31l.17-.41.29-.68a45.39,45.39,0,0,1,2.92-5.62L23.62,36l-8.24-8.24,12.41-12.4L36,23.61l1.37-.84a45.74,45.74,0,0,1,5.8-3l.5-.2.68-.28a44.59,44.59,0,0,1,6-1.9L52,17V5.36H69.53V17l1.57.37a45.27,45.27,0,0,1,6.31,2l.44.18.65.27a44.76,44.76,0,0,1,5.62,2.93l1.37.84,8.24-8.23,12.41,12.4L97.9,36l.85,1.37a46.19,46.19,0,0,1,3,5.84l.47,1.13a46.44,46.44,0,0,1,1.9,6l.37,1.58h11.65ZM60.76,35.87A24.88,24.88,0,1,0,85.65,60.75,24.92,24.92,0,0,0,60.76,35.87Zm0,45.67a20.8,20.8,0,1,1,20.8-20.79A20.82,20.82,0,0,1,60.76,81.54Z"/><path class="cls-2" d="M116.77,47.89h-9.06A48.76,48.76,0,0,0,106,42.66l-.53-1.28a48.72,48.72,0,0,0-2.37-4.74l6.4-6.39a3.46,3.46,0,0,0,0-4.93L96.2,12.06a3.58,3.58,0,0,0-4.93,0l-6.4,6.4a54.83,54.83,0,0,0-5-2.49l-1.19-.49q-2.46-1-5-1.68v-9a3.49,3.49,0,0,0-3.48-3.49H51.39A3.49,3.49,0,0,0,47.9,4.76v9a53,53,0,0,0-5,1.68l-1.47.61a50,50,0,0,0-4.75,2.37l-6.4-6.4a3.58,3.58,0,0,0-4.93,0L12.07,25.32a3.49,3.49,0,0,0,0,4.93l6.4,6.39A50.31,50.31,0,0,0,16,41.73l-.46,1.13a48.63,48.63,0,0,0-1.68,5h-9a3.5,3.5,0,0,0-3.49,3.48V70.12A3.49,3.49,0,0,0,4.76,73.6h9.05a50.23,50.23,0,0,0,1.77,5.27l.52,1.24a48.72,48.72,0,0,0,2.37,4.74l-6.4,6.4a3.48,3.48,0,0,0,0,4.92l13.25,13.26a3.57,3.57,0,0,0,4.93,0l6.4-6.4a47.21,47.21,0,0,0,4.72,2.36l1.09.46.41.16a48.63,48.63,0,0,0,5,1.68v9a3.49,3.49,0,0,0,3.49,3.48H70.14a3.49,3.49,0,0,0,3.48-3.48v-9a50.28,50.28,0,0,0,5.23-1.76l1.28-.53A48.72,48.72,0,0,0,84.87,103l6.4,6.4a3.57,3.57,0,0,0,4.93,0l13.25-13.26a3.48,3.48,0,0,0,0-4.92l-6.4-6.4a49.16,49.16,0,0,0,2.48-5l.21-.49.3-.75a47.79,47.79,0,0,0,1.67-5h9.06a3.48,3.48,0,0,0,3.48-3.48V51.37A3.49,3.49,0,0,0,116.77,47.89Zm-.61,21.63H104.51l-.37,1.57a45.89,45.89,0,0,1-2,6.22l-.2.5-.29.67a44.64,44.64,0,0,1-2.92,5.62l-.85,1.37,8.24,8.24-12.41,12.4-8.24-8.23-1.37.84a46.78,46.78,0,0,1-5.88,3l-.42.17-.67.27a45.21,45.21,0,0,1-6.05,1.91l-1.57.37v11.64H52V104.49l-1.57-.37A47,47,0,0,1,44,102.07l-.56-.24-.43-.18a44.76,44.76,0,0,1-5.62-2.93L36,97.88l-8.24,8.23L15.38,93.71l8.24-8.24-.85-1.37a45.93,45.93,0,0,1-3-5.82l-.2-.47-.28-.68a45.17,45.17,0,0,1-1.9-6L17,69.52H5.36V52H17l.37-1.57a45.27,45.27,0,0,1,2-6.31l.17-.41.29-.68a45.39,45.39,0,0,1,2.92-5.62L23.62,36l-8.24-8.24,12.41-12.4L36,23.61l1.37-.84a45.74,45.74,0,0,1,5.8-3l.5-.2.68-.28a44.59,44.59,0,0,1,6-1.9L52,17V5.36H69.53V17l1.57.37a45.27,45.27,0,0,1,6.31,2l.44.18.65.27a44.76,44.76,0,0,1,5.62,2.93l1.37.84,8.24-8.23,12.41,12.4L97.9,36l.85,1.37a46.19,46.19,0,0,1,3,5.84l.47,1.13a46.44,46.44,0,0,1,1.9,6l.37,1.58h11.65ZM60.76,35.87A24.88,24.88,0,1,0,85.65,60.75,24.92,24.92,0,0,0,60.76,35.87Zm0,45.67a20.8,20.8,0,1,1,20.8-20.79A20.82,20.82,0,0,1,60.76,81.54Z"/></g><path class="cls-3" d="M13.16,109.33a.71.71,0,0,1-.56-.29.69.69,0,0,1-.13-.62L15.7,96.53l9.56,9.62-11.9,3.15A.69.69,0,0,1,13.16,109.33Z"/><path class="cls-4" d="M16.21,98.46l7.12,7.17-9.76,2.58,2.64-9.75m-1-3.86-3.68,13.55a1.72,1.72,0,0,0,1.65,2.18,1.74,1.74,0,0,0,.45-.06l13.59-3.59-12-12.08Z"/><rect class="cls-3" x="101.38" y="12.18" width="2.48" height="14.77" transform="translate(16.04 78.03) rotate(-44.82)"/><path class="cls-4" d="M98.29,14.87l9,9.06-.34.34-9-9.06.34-.34m0-2.83L95.12,15.2l11.82,11.9,3.18-3.16L98.3,12Z"/><rect class="cls-3" x="105.35" y="6.96" width="5.05" height="14.77" transform="translate(21.23 80.19) rotate(-44.8)"/><path class="cls-4" d="M104.46,8.74l9,9.06L111.3,20l-9-9.06,2.16-2.15m0-2.49a.84.84,0,0,0-.59.24l-3.83,3.81a.82.82,0,0,0,0,1.16l10.66,10.73a.83.83,0,0,0,.58.25.86.86,0,0,0,.59-.24l3.82-3.81a.82.82,0,0,0,0-1.17L105.05,6.5a.79.79,0,0,0-.58-.25Z"/><rect class="cls-3" x="22.88" y="91.05" width="0.69" height="14.77" transform="translate(-62.64 44.99) rotate(-44.83)"/><polygon class="cls-4" points="18.27 91.54 16.36 93.43 28.18 105.33 30.09 103.44 18.27 91.54 18.27 91.54"/><rect class="cls-3" x="11.09" y="51.93" width="103.02" height="14.77" transform="translate(-23.61 61.36) rotate(-44.81)"/><path class="cls-4" d="M93.94,19.19l9,9.06L31.27,99.45l-9-9.07L93.94,19.19m0-2.83-74.51,74,11.82,11.91,74.51-74L94,16.36Z"/></g></g></svg>