<svg xmlns="http://www.w3.org/2000/svg" viewBox="0 0 241.71 242.93"><defs><style>.cls-1{fill:#3d3d3d;}.cls-2{fill:#fff;}.cls-3,.cls-4{fill:#e64663;}.cls-4{font-size:98.09px;font-family:GothamRounded-Book, Gotham Rounded;}</style></defs><title>Economic-eng</title><g id="Calque_2" data-name="Calque 2"><g id="Calque_1-2" data-name="Calque 1"><path class="cls-1" d="M88.65,203l-7.08-7.07c.22-.21.43-.45.66-.69a16.39,16.39,0,0,1,13.29-6h72.37c5.83-2.36,32.35-28,38.35-34.74,3.29-3.69,17.68-25.25,23.65-37.07a18.87,18.87,0,0,0-13.59-1.56c-6.81,1.59-11.39,6.35-17.49,18.23l-.73,1.42-25.26,13.11-4.61-8.87,22.45-11.66c6.16-11.67,12.38-19.41,23.38-22,8.51-2,20.25-.59,26,7.1l1.71,2.3-1.13,2.64c-5.06,11.84-22.79,38.4-26.88,43-2.11,2.37-11.25,11.65-20.48,20.24-19.18,17.85-22.61,17.85-24.87,17.85H95.52c-3.38,0-4.41,1.11-6,2.79Z"/><path class="cls-1" d="M158,168H116.33V158H158c7.32,0,10.6-4,10.6-8s-3.28-8-10.6-8H130.46c-3.62,0-6.85-2.47-10.59-5.34-2.79-2.13-6.61-5.06-8.75-5.06h-26c-5,0-12.5,4.52-17.34,9L47,161.35,40,154.28l20.94-20.93c5.82-5.42,15.65-11.75,24.22-11.75h26c5.53,0,10.47,3.78,14.83,7.12a31.27,31.27,0,0,0,4.77,3.28H158c13.53,0,20.6,9.06,20.6,18S171.48,168,158,168Z"/><rect class="cls-2" x="32.9" y="147.49" width="36.79" height="88.29" transform="translate(-120.48 92.4) rotate(-45)"/><path class="cls-1" d="M69.5,242.93,0,173.42l33.08-33.08,69.51,69.5ZM14.14,173.42,69.5,228.78l18.94-18.94L33.08,154.48Z"/><line class="cls-2" x1="33.08" y1="173.42" x2="43.49" y2="183.83"/><rect class="cls-3" x="33.29" y="171.27" width="10" height="14.71" transform="translate(-115.09 79.39) rotate(-45)"/><text class="cls-4" transform="translate(102.6 83.38)">$</text></g></g></svg>