<svg xmlns="http://www.w3.org/2000/svg" viewBox="0 0 241.71 230.39"><defs><style>.cls-1{fill:#fff;}.cls-2{fill:#3d3d3d;}.cls-3{fill:#e64663;}</style></defs><title>Economic-eur</title><g id="Calque_2" data-name="Calque 2"><g id="Calque_1-2" data-name="Calque 1"><rect class="cls-1" x="32.9" y="134.95" width="36.79" height="88.29" transform="translate(-111.61 88.72) rotate(-45)"/><path class="cls-2" d="M240,100.68c-5.71-7.69-17.45-9.07-26-7.1-11,2.56-17.22,10.3-23.38,22l-17.74,9.21c-3.45-3.18-8.45-5.29-15-5.29H130.72a32.21,32.21,0,0,1-4.77-3.29c-4.36-3.33-9.3-7.12-14.83-7.12h-26c-8.57,0-18.4,6.33-24.22,11.75l-17.4,17.4L33.08,127.8,0,160.88l69.5,69.51,33.09-33.09L92.46,187.18a8.1,8.1,0,0,1,3.06-.49h72.83c2.26,0,5.69,0,24.87-17.84,9.23-8.6,18.37-17.88,20.48-20.25,4.09-4.58,21.82-31.14,26.88-43l1.13-2.64ZM69.5,216.24,14.14,160.88l18.94-18.94L88.44,197.3ZM206.24,142c-6,6.73-32.52,32.38-38.35,34.74H95.52a16.34,16.34,0,0,0-10.34,3.21L50.56,145.28l17.21-17.21c4.84-4.49,12.33-9,17.34-9h26c2.14,0,6,2.93,8.75,5.06,3.74,2.87,7,5.35,10.59,5.35H158c7.32,0,10.6,4,10.6,8s-3.28,8-10.6,8H116.33v10H158c13.53,0,20.6-9.06,20.6-18a16.68,16.68,0,0,0-.52-4.09L198.08,123l.73-1.42c6.1-11.87,10.68-16.64,17.49-18.23a18.87,18.87,0,0,1,13.59,1.56C223.92,116.7,209.53,138.26,206.24,142Z"/><line class="cls-1" x1="33.08" y1="160.88" x2="43.49" y2="171.29"/><rect class="cls-3" x="33.29" y="158.73" width="10" height="14.71" transform="translate(-106.22 75.72) rotate(-45)"/><path class="cls-3" d="M159.92,58.56C154.73,65.72,148.06,71,137.86,71c-13.93,0-24.33-9.9-27.76-24.42h-6.28a3.09,3.09,0,0,1,0-6.18h5.3c-.1-1.57-.2-3.14-.2-4.81a54.52,54.52,0,0,1,.3-5.78h-5.4a3,3,0,1,1,0-6.08h6.57C114.12,10,124.12,0,137.37,0,148,0,154.43,4.81,159.53,11.38a4,4,0,0,1,1,2.55,3.68,3.68,0,0,1-3.63,3.63,3.83,3.83,0,0,1-2.94-1.38c-4.51-6-9.12-9.22-16.87-9.22-8.83,0-15.79,6.77-18.73,16.78H140.9a3,3,0,1,1,0,6.08H117a54.93,54.93,0,0,0-.29,5.59,40.25,40.25,0,0,0,.2,5h24a3.09,3.09,0,1,1,0,6.18H118c2.95,10.59,10.3,17.46,20.11,17.46,7.16,0,12.06-3.92,16.28-9.71A3.28,3.28,0,0,1,157.18,53a3.43,3.43,0,0,1,3.53,3.43A4.08,4.08,0,0,1,159.92,58.56Z"/></g></g></svg>