<svg xmlns="http://www.w3.org/2000/svg" viewBox="0 0 252.5 122.78"><defs><style>.cls-1{fill:#393e46;}.cls-2{fill:#e64663;}</style></defs><title>Compatibility-LMS</title><g id="Calque_2" data-name="Calque 2"><g id="Calque_1-2" data-name="Calque 1"><path class="cls-1" d="M111.86,10.92V49.44l9.63.35c7.25.27,12.51,5.31,12.51,12s-5.26,11.72-12.51,12l-9.63.36v38.66H10V10.92H111.86m10-10H0V122.78H121.86v-39c12.3-.46,22.14-9.57,22.14-22s-9.84-21.53-22.14-22V.92Z"/><path class="cls-2" d="M243.29,9.21V26C231.91,29.91,220.42,41,220.42,60.58s11.49,30.67,22.87,34.59v17.48H226.5c-3.92-11.38-15.05-22.87-34.59-22.87s-30.67,11.49-34.59,22.87H139.84V95.86c11.38-3.91,22.87-15,22.87-34.59S151.22,30.6,139.84,26.69V9.21h16.8c3.91,11.38,15,22.86,34.58,22.86s30.67-11.48,34.59-22.86h17.48M252.5,0H218.22c0,8.86-7.71,22.86-27,22.86s-27-14-27-22.86h-33.6V34.28c8.87,0,22.87,7.71,22.87,27s-14,27-22.87,27v33.59h34.28c0-8.87,7.71-22.87,27-22.87s27,14,27,22.87h33.6V87.58c-8.87,0-22.87-7.71-22.87-27s14-27,22.87-27V0Z"/><path class="cls-1" d="M25.52,52.68a2.77,2.77,0,1,1,5.54,0V70.26H41.31a2.52,2.52,0,0,1,0,5h-13a2.75,2.75,0,0,1-2.77-2.77Z"/><path class="cls-1" d="M47.78,52.75A2.75,2.75,0,0,1,50.55,50h.61a2.84,2.84,0,0,1,2.52,1.44l6.69,10.89L67.1,51.38A2.71,2.71,0,0,1,69.58,50h.61A2.74,2.74,0,0,1,73,52.75v20a2.75,2.75,0,1,1-5.5,0V60.19L62.6,67.67a2.58,2.58,0,0,1-4.6,0L53.21,60.3V72.82a2.72,2.72,0,0,1-5.43,0Z"/><path class="cls-1" d="M78.5,72.64a2.61,2.61,0,0,1-1-2.09A2.54,2.54,0,0,1,80,68a2.7,2.7,0,0,1,1.59.5,10.62,10.62,0,0,0,6.44,2.27c2.26,0,3.63-.9,3.63-2.38v-.07c0-1.4-.87-2.12-5.07-3.2-5.07-1.3-8.35-2.7-8.35-7.7v-.07c0-4.57,3.67-7.59,8.81-7.59a14.63,14.63,0,0,1,8,2.23,2.57,2.57,0,0,1-1.37,4.75,2.57,2.57,0,0,1-1.4-.4A10.58,10.58,0,0,0,87,54.65c-2.12,0-3.23,1-3.23,2.2v.07c0,1.65,1.07,2.19,5.43,3.31,5.1,1.33,8,3.16,8,7.55v.07c0,5-3.81,7.81-9.24,7.81A16.27,16.27,0,0,1,78.5,72.64Z"/></g></g></svg>