<svg xmlns="http://www.w3.org/2000/svg" viewBox="0 0 229.27 156.44"><defs><style>.cls-1{fill:#393e46;}.cls-2{fill:#e64663;}</style></defs><title>Large-population</title><g id="Calque_2" data-name="Calque 2"><g id="Calque_1-2" data-name="Calque 1"><path class="cls-1" d="M80.89,92.68c-4.06-4.82-8.55-8.85-17.23-11.25-3.45-1.53-4.23-1.9-5.1-2.6l-.93-.92c-1.39-1.36-2.16-2.1-2.43-4.12V64.64c2.45-2.85,4-6.65,5.53-11.66,2.06-.79,4.11-3.39,4.76-6.29.7-3.13.37-5.75-.82-7.21C68,26.76,67.51,15.9,63.23,10.22a11.44,11.44,0,0,0-9.49-4.58,5.64,5.64,0,0,1-.9-1C51.29,2.5,49.65,1,42.5,1h-.76c-8.59,0-15.1,2.58-19.35,7.68-5.45,6.54-7,17-4.61,31-1,1.47-1.34,3.92-.79,6.84a9.12,9.12,0,0,0,4.17,6.21C23,58.21,25,62,27.25,64.55c.13,4.14.17,8.81,0,9.69A7,7,0,0,1,25.08,78c-1.17,1.17-2.74,2-6,3.32A32.2,32.2,0,0,0,1.39,92.68L0,94.31l1.61,1.42c11.68,10.28,24,14.15,39.53,14.15S69,106,80.66,95.73l1.61-1.42ZM41.14,105.49c-13.72,0-24.29-2.94-34.89-11.57,3.72-3.5,6.89-6.46,14.24-8.5,3.55-1.4,5.83-2.51,7.69-4.37a11.43,11.43,0,0,0,3.39-6c.33-1.86.11-9.24,0-11.46l0-.86-.6-.61c-2.15-2.17-4-5.9-6-11.75l-.13-1.52-1.65.07a5.14,5.14,0,0,1-1.9-3.19,7.93,7.93,0,0,1-.05-3.21l1.45-.24-.39-2.19C19.87,26.79,21,17.17,25.76,11.5c3.38-4.06,8.75-6.11,16-6.11h.74c5.47,0,6.06.8,6.8,1.82A8.5,8.5,0,0,0,52,9.73l.56.34L53.72,10a7,7,0,0,1,6,2.84c3.58,4.74,3.69,15.07.3,27l-.35,2.1,1.67.53a7.77,7.77,0,0,1-.14,3.3,5.72,5.72,0,0,1-1.58,2.82l-1.79-1.34L57,50.27c-1.57,5.38-3.1,9.48-5.54,12l-.61.64,0,11.15a10.32,10.32,0,0,0,3.74,7l1,1c1.54,1.27,2.74,1.82,6.59,3.49,7.08,2,10.15,4.91,13.84,8.38C65.42,102.55,54.86,105.49,41.14,105.49Z"/><path class="cls-1" d="M227.89,92.68c-4.06-4.82-8.55-8.85-17.23-11.25-3.45-1.53-4.23-1.9-5.1-2.6l-.93-.92c-1.39-1.36-2.16-2.1-2.43-4.12V64.64c2.45-2.85,4-6.65,5.53-11.66,2.06-.79,4.11-3.39,4.76-6.29.7-3.13.37-5.75-.82-7.21,3.36-12.72,2.84-23.58-1.44-29.26a11.44,11.44,0,0,0-9.49-4.58,5.64,5.64,0,0,1-.9-1C198.29,2.5,196.65,1,189.5,1h-.76c-8.59,0-15.1,2.58-19.35,7.68-5.45,6.54-7,17-4.61,31-1,1.47-1.34,3.92-.79,6.84a9.12,9.12,0,0,0,4.17,6.21C170,58.21,172,62,174.25,64.55c.13,4.14.17,8.81,0,9.69A7,7,0,0,1,172.08,78c-1.17,1.17-2.74,2-6,3.32a32.2,32.2,0,0,0-17.71,11.41L147,94.31l1.61,1.42c11.68,10.28,24,14.15,39.53,14.15S216,106,227.66,95.73l1.61-1.42Zm-39.75,12.81c-13.72,0-24.29-2.94-34.89-11.57,3.72-3.5,6.89-6.46,14.24-8.5,3.55-1.4,5.83-2.51,7.69-4.37a11.43,11.43,0,0,0,3.39-6c.33-1.86.11-9.24,0-11.46l0-.86-.6-.61c-2.15-2.17-4.05-5.9-6-11.75l-.13-1.52-1.65.07a5.14,5.14,0,0,1-1.9-3.19,7.93,7.93,0,0,1-.05-3.21l1.45-.24-.39-2.19c-2.44-13.29-1.28-22.91,3.45-28.58,3.38-4.06,8.75-6.11,16-6.11h.74c5.47,0,6.06.8,6.8,1.82A8.5,8.5,0,0,0,199,9.73l.56.34,1.19-.05a7,7,0,0,1,6,2.84c3.58,4.74,3.69,15.07.3,27l-.35,2.1,1.67.53a7.77,7.77,0,0,1-.14,3.3,5.72,5.72,0,0,1-1.58,2.82l-1.79-1.34L204,50.27c-1.57,5.38-3.1,9.48-5.54,12l-.61.64,0,11.15a10.32,10.32,0,0,0,3.74,7l1,1c1.54,1.27,2.74,1.82,6.59,3.49,7.08,2,10.15,4.91,13.84,8.38C212.42,102.55,201.86,105.49,188.14,105.49Z"/><path class="cls-2" d="M171.79,130.39c-6.19-7.33-12.78-12.9-24.86-16.25-4.87-2.14-5.83-2.63-6.91-3.48l-1.3-1.29c-1.91-1.86-2.8-2.72-3.14-5.19V91.64c3.7-4.45,5.88-10.37,7.67-16.17,3.12-1.45,6-5.32,6.91-9.45,1-4.42.59-8.26-1.06-10.65,4.7-18.09,3.84-33.72-2.33-41.9A17.15,17.15,0,0,0,132.9,6.58,8.69,8.69,0,0,1,132,5.52C129.75,2.39,127.15,0,116.56,0h-1.07C103,0,93.51,3.8,87.28,11.27c-7.87,9.44-10.16,24.37-6.82,44.39C79,58,78.62,61.6,79.41,65.78a14.16,14.16,0,0,0,6.07,9.3C88.1,82.62,90.8,87.87,94,91.53c.19,6.43.2,12.18,0,13.18a9.06,9.06,0,0,1-2.81,4.74c-1.52,1.52-3.64,2.69-8.09,4.46C70.43,117.4,63.7,123,57.49,130.39l-2.6,3.08,3,2.66c16,14,33.46,20.31,56.73,20.31s40.77-6.27,56.72-20.31l3-2.66ZM102.05,106.2c.48-2.65.2-12.4.06-16.47l-.06-1.61L100.92,87C98,84,95.39,78.89,92.71,70.81l-.26-3-3,.12a7,7,0,0,1-2-3.69,11.69,11.69,0,0,1-.19-3.5l2.37-.39-.75-4.11c-3.4-18.55-1.83-31.91,4.68-39.72,4.6-5.51,12-8.3,22-8.3h1c7.26,0,8,.95,8.84,2.16a13.17,13.17,0,0,0,4.08,3.87l1.06.62,1.94-.07a9,9,0,0,1,7.72,3.62c4.9,6.49,5,20.8.26,37.35l-.66,4,2.62.83a12,12,0,0,1-.29,3.68,7.18,7.18,0,0,1-1.4,2.88l-3-2.22-1.66,5.71c-2.18,7.49-4.31,13.18-7.61,16.61l-1.15,1.2,0,16.21v.13c.72,5.77,3.32,8.29,5.61,10.51l1.52,1.48c2.31,1.9,4.15,2.73,9.58,5.09l.13,0c9.28,2.59,13.46,6.24,18.38,10.85-13.83,11-27.82,15.48-48,15.48s-34.14-4.5-48-15.48c4.8-4.49,9.29-8.35,18.94-11l.1,0c5.18-2,8.5-3.67,11.25-6.42A17.12,17.12,0,0,0,102.05,106.2Z"/></g></g></svg>