<svg xmlns="http://www.w3.org/2000/svg" viewBox="0 0 255.16 227.74"><defs><style>.cls-1{fill:#393e46;}.cls-2{fill:#e64663;}.cls-3{fill:#fff;}</style></defs><title>Technical-support</title><g id="Calque_2" data-name="Calque 2"><g id="Calque_1-2" data-name="Calque 1"><path class="cls-1" d="M5.58,158.53a5.48,5.48,0,0,1-2.13-.43A5.58,5.58,0,0,1,0,152.94V5.58A5.58,5.58,0,0,1,5.58,0H151.83a5.58,5.58,0,0,1,5.58,5.58V113.87a5.58,5.58,0,0,1-5.58,5.58H47L9.53,156.89A5.59,5.59,0,0,1,5.58,158.53ZM11.16,11.16V139.47l29.55-29.55a5.58,5.58,0,0,1,3.95-1.63H146.25V11.16Z"/><path class="cls-2" d="M74.74,69.4a3.75,3.75,0,0,1-3.68-3.34l-.68-4.63a3.36,3.36,0,0,1,3.13-4.09c5.93-.75,8.65-2.59,8.65-5.92v-.14c0-3.06-2.32-4.83-6.27-4.83A12.67,12.67,0,0,0,68,49.17a5.21,5.21,0,0,1-3.06,1.09,4.83,4.83,0,0,1-4.77-4.77,4.77,4.77,0,0,1,1.77-3.67A21.34,21.34,0,0,1,76.1,36.91c9.8,0,16.48,5,16.48,14.1v.14c0,8.64-6,12.19-13.42,13.68L79,66.06a3.81,3.81,0,0,1-3.68,3.34Zm0,4.49a5.73,5.73,0,0,1,5.92,5.79v.14a5.93,5.93,0,0,1-11.85,0v-.14A5.73,5.73,0,0,1,74.74,73.89Z"/><polygon class="cls-3" points="122.17 93.78 249.58 93.78 249.58 183.25 249.58 188.12 249.58 222.16 215.54 188.12 122.17 188.12 122.17 93.78"/><path class="cls-1" d="M249.58,227.74a5.62,5.62,0,0,1-4-1.63l-32.4-32.41H122.17a5.58,5.58,0,0,1-5.58-5.58V93.78a5.58,5.58,0,0,1,5.58-5.59H249.58a5.58,5.58,0,0,1,5.58,5.59V222.16a5.59,5.59,0,0,1-3.44,5.16A5.7,5.7,0,0,1,249.58,227.74Zm-121.83-45.2h87.79a5.58,5.58,0,0,1,4,1.63L244,208.68V99.36H127.75Z"/><path class="cls-2" d="M166.4,138.64a5.73,5.73,0,0,1,5.93,5.79v.13a5.93,5.93,0,0,1-11.85,0v-.13A5.73,5.73,0,0,1,166.4,138.64Z"/><path class="cls-2" d="M185.88,138.64a5.73,5.73,0,0,1,5.92,5.79v.13a5.93,5.93,0,0,1-11.85,0v-.13A5.73,5.73,0,0,1,185.88,138.64Z"/><path class="cls-2" d="M205.35,138.64a5.73,5.73,0,0,1,5.93,5.79v.13a5.93,5.93,0,0,1-11.85,0v-.13A5.73,5.73,0,0,1,205.35,138.64Z"/></g></g></svg>