<svg xmlns="http://www.w3.org/2000/svg" viewBox="0 0 166.3 150"><defs><style>.cls-1{fill:#e64663;}</style></defs><title>Check-pink_1</title><g id="Calque_2" data-name="Calque 2"><g id="Calque_1-2" data-name="Calque 1"><path class="cls-1" d="M158.3,8V142H8V8H158.3m3-8H5A5,5,0,0,0,0,5V145a5,5,0,0,0,5,5H161.34a5,5,0,0,0,5-5V5a5,5,0,0,0-5-5Z"/><path class="cls-1" d="M66.46,120.44a6.78,6.78,0,0,1-4.82-2L19.52,76.33a6.82,6.82,0,1,1,9.64-9.64L66.46,104,137.15,33.3a6.81,6.81,0,0,1,9.63,9.64L71.27,118.45A6.78,6.78,0,0,1,66.46,120.44Z"/></g></g></svg>